<mxfile host="Electron" modified="2023-11-10T08:57:00.241Z" agent="Mozilla/5.0 (Windows NT 10.0; Win64; x64) AppleWebKit/537.36 (KHTML, like Gecko) draw.io/22.0.2 Chrome/114.0.5735.289 Electron/25.8.4 Safari/537.36" etag="zPuYx00a58khAyEsMynV" version="22.0.2" type="device">
  <diagram name="Page-1" id="7fCQkIxzYssV3IAHBfX8">
    <mxGraphModel dx="982" dy="828" grid="1" gridSize="10" guides="1" tooltips="1" connect="1" arrows="1" fold="1" page="1" pageScale="1" pageWidth="827" pageHeight="1169" math="0" shadow="0">
      <root>
        <mxCell id="0" />
        <mxCell id="1" parent="0" />
        <mxCell id="QaRVi4EhWShEnRNU8BvA-3" style="edgeStyle=orthogonalEdgeStyle;rounded=0;orthogonalLoop=1;jettySize=auto;html=1;exitX=0.5;exitY=1;exitDx=0;exitDy=0;" edge="1" parent="1" source="QaRVi4EhWShEnRNU8BvA-1">
          <mxGeometry relative="1" as="geometry">
            <mxPoint x="399" y="80" as="targetPoint" />
          </mxGeometry>
        </mxCell>
        <mxCell id="QaRVi4EhWShEnRNU8BvA-1" value="" style="ellipse;html=1;shape=startState;fillColor=#000000;strokeColor=#ff0000;" vertex="1" parent="1">
          <mxGeometry x="384" y="20" width="30" height="30" as="geometry" />
        </mxCell>
        <mxCell id="QaRVi4EhWShEnRNU8BvA-4" value="a&amp;gt;17" style="rounded=1;whiteSpace=wrap;html=1;arcSize=40;fontColor=#000000;fillColor=#ffffc0;strokeColor=#ff0000;" vertex="1" parent="1">
          <mxGeometry x="339" y="80" width="120" height="40" as="geometry" />
        </mxCell>
        <mxCell id="QaRVi4EhWShEnRNU8BvA-5" value="" style="edgeStyle=orthogonalEdgeStyle;html=1;verticalAlign=bottom;endArrow=open;endSize=8;strokeColor=#ff0000;rounded=0;" edge="1" source="QaRVi4EhWShEnRNU8BvA-4" parent="1">
          <mxGeometry relative="1" as="geometry">
            <mxPoint x="399" y="180" as="targetPoint" />
          </mxGeometry>
        </mxCell>
        <mxCell id="QaRVi4EhWShEnRNU8BvA-6" value="Condition" style="rhombus;whiteSpace=wrap;html=1;fontColor=#000000;fillColor=#ffffc0;strokeColor=#ff0000;" vertex="1" parent="1">
          <mxGeometry x="359" y="180" width="80" height="40" as="geometry" />
        </mxCell>
        <mxCell id="QaRVi4EhWShEnRNU8BvA-7" value="no" style="edgeStyle=orthogonalEdgeStyle;html=1;align=left;verticalAlign=bottom;endArrow=open;endSize=8;strokeColor=#ff0000;rounded=0;" edge="1" source="QaRVi4EhWShEnRNU8BvA-6" parent="1" target="QaRVi4EhWShEnRNU8BvA-9">
          <mxGeometry x="-1" relative="1" as="geometry">
            <mxPoint x="500" y="240" as="targetPoint" />
          </mxGeometry>
        </mxCell>
        <mxCell id="QaRVi4EhWShEnRNU8BvA-8" value="yes" style="edgeStyle=orthogonalEdgeStyle;html=1;align=left;verticalAlign=top;endArrow=open;endSize=8;strokeColor=#ff0000;rounded=0;" edge="1" source="QaRVi4EhWShEnRNU8BvA-6" parent="1" target="QaRVi4EhWShEnRNU8BvA-10">
          <mxGeometry x="-1" relative="1" as="geometry">
            <mxPoint x="399" y="280" as="targetPoint" />
          </mxGeometry>
        </mxCell>
        <mxCell id="QaRVi4EhWShEnRNU8BvA-12" style="edgeStyle=orthogonalEdgeStyle;rounded=0;orthogonalLoop=1;jettySize=auto;html=1;exitX=0.5;exitY=1;exitDx=0;exitDy=0;" edge="1" parent="1" source="QaRVi4EhWShEnRNU8BvA-9" target="QaRVi4EhWShEnRNU8BvA-13">
          <mxGeometry relative="1" as="geometry">
            <mxPoint x="519" y="360" as="targetPoint" />
          </mxGeometry>
        </mxCell>
        <mxCell id="QaRVi4EhWShEnRNU8BvA-9" value="afficher&amp;nbsp;&lt;br&gt;&quot; vous êtes mineur &quot;" style="rounded=1;whiteSpace=wrap;html=1;arcSize=40;fontColor=#000000;fillColor=#ffffc0;strokeColor=#ff0000;" vertex="1" parent="1">
          <mxGeometry x="459" y="230" width="120" height="40" as="geometry" />
        </mxCell>
        <mxCell id="QaRVi4EhWShEnRNU8BvA-11" style="edgeStyle=orthogonalEdgeStyle;rounded=0;orthogonalLoop=1;jettySize=auto;html=1;exitX=0.5;exitY=1;exitDx=0;exitDy=0;" edge="1" parent="1" source="QaRVi4EhWShEnRNU8BvA-10" target="QaRVi4EhWShEnRNU8BvA-14">
          <mxGeometry relative="1" as="geometry">
            <mxPoint x="399" y="360" as="targetPoint" />
          </mxGeometry>
        </mxCell>
        <mxCell id="QaRVi4EhWShEnRNU8BvA-10" value="afficher&lt;br&gt;&quot; vous êtes majeur &quot;" style="rounded=1;whiteSpace=wrap;html=1;arcSize=40;fontColor=#000000;fillColor=#ffffc0;strokeColor=#ff0000;" vertex="1" parent="1">
          <mxGeometry x="339" y="260" width="120" height="40" as="geometry" />
        </mxCell>
        <mxCell id="QaRVi4EhWShEnRNU8BvA-13" value="" style="ellipse;html=1;shape=endState;fillColor=#000000;strokeColor=#ff0000;" vertex="1" parent="1">
          <mxGeometry x="504" y="345" width="30" height="30" as="geometry" />
        </mxCell>
        <mxCell id="QaRVi4EhWShEnRNU8BvA-14" value="" style="ellipse;html=1;shape=endState;fillColor=#000000;strokeColor=#ff0000;" vertex="1" parent="1">
          <mxGeometry x="384" y="345" width="30" height="30" as="geometry" />
        </mxCell>
      </root>
    </mxGraphModel>
  </diagram>
</mxfile>
